HIERARCHY
ROOT Hips
{
	OFFSET	0.00	0.00	0.00
	CHANNELS 6 Xposition Yposition Zposition Zrotation Xrotation Yrotation
	JOINT Chest
	{
		OFFSET	0.000000	6.275751	0.000000
		CHANNELS 3 Zrotation Xrotation Yrotation
		JOINT Neck
		{
			OFFSET	0.000000	14.296947	0.000000
			CHANNELS 3 Zrotation Xrotation Yrotation
			JOINT Head
			{
				OFFSET	0.000000	2.637461	0.000000
				CHANNELS 3 Zrotation Xrotation Yrotation
				End Site
				{
					OFFSET	0.000000	4.499004	0.000000
				}
			}
		}
		JOINT LeftCollar
		{
			OFFSET	1.120000	11.362855	1.870000
			CHANNELS 3 Zrotation Xrotation Yrotation
			JOINT LeftUpArm
			{
				OFFSET	4.565688	2.019026	-1.821179
				CHANNELS 3 Zrotation Xrotation Yrotation
				JOINT LeftLowArm
				{
					OFFSET	0.219729	-10.348825	-0.061708
					CHANNELS 3 Zrotation Xrotation Yrotation
					JOINT LeftHand
					{
						OFFSET	0.087892	-10.352228	2.178217
						CHANNELS 3 Zrotation Xrotation Yrotation
						End Site
						{
							OFFSET	0.131837	-6.692379	1.711456
						}
					}
				}
			}
		}
		JOINT RightCollar
		{
			OFFSET	-1.120000	11.362855	1.870000
			CHANNELS 3 Zrotation Xrotation Yrotation
			JOINT RightUpArm
			{
				OFFSET	-4.708080	2.034554	-1.821179
				CHANNELS 3 Zrotation Xrotation Yrotation
				JOINT RightLowArm
				{
					OFFSET	-0.263676	-10.428555	-0.061708
					CHANNELS 3 Zrotation Xrotation Yrotation
					JOINT RightHand
					{
						OFFSET	0.000000	-10.255345	2.178217
						CHANNELS 3 Zrotation Xrotation Yrotation
						End Site
						{
							OFFSET	-0.140882	-6.671274	1.711456
						}
					}
				}
			}
		}
	}
	JOINT LeftUpLeg
	{
		OFFSET	3.910000	0.000000	0.000000
		CHANNELS 3 Zrotation Xrotation Yrotation
		JOINT LeftLowLeg
		{
			OFFSET	-0.441177	-17.569450	1.695613
			CHANNELS 3 Zrotation Xrotation Yrotation
			JOINT LeftFoot
			{
				OFFSET	-0.043946	-17.197315	-1.478076
				CHANNELS 3 Zrotation Xrotation Yrotation
				End Site
				{
					OFFSET	0.000000	-3.933155	5.233925
				}
			}
		}
	}
	JOINT RightUpLeg
	{
		OFFSET	-3.910000	0.000000	0.000000
		CHANNELS 3 Zrotation Xrotation Yrotation
		JOINT RightLowLeg
		{
			OFFSET	0.437741	-17.622387	1.695613
			CHANNELS 3 Zrotation Xrotation Yrotation
			JOINT RightFoot
			{
				OFFSET	0.000000	-17.140001	-1.478076
				CHANNELS 3 Zrotation Xrotation Yrotation
				End Site
				{
					OFFSET	0.000000	-4.038528	5.233925
				}
			}
		}
	}
}
MOTION
Frames: 19
Frame Time: 0.04166667
-56.969028	35.812836	-3.269674	-2.418675	-3.291070	9.130197	8.598582	0.489390	-1.279004	-3.949569	6.583955	-14.164951	1.184145	-22.122276	0.767513	-17.165873	12.763671	1.560560	26.340715	-23.924181	-56.759163	-7.547088	1.185193	5.807127	-2.278163	2.472245	-0.484034	14.596587	19.305304	-5.215394	-25.883894	-27.081589	19.789875	-5.495636	6.846376	1.591503	-1.135784	2.399606	-0.243627	6.135868	0.412666	10.330128	-3.308928	11.694032	-8.454123	-0.709018	-7.742647	-0.180430	6.153274	12.088406	-31.658669	2.638760	-9.065262	13.573605	-5.574231	-0.309057	5.577782	
-56.895161	35.829605	-3.338549	-2.430518	-3.406209	8.589537	8.482682	1.160001	-1.545578	-3.881917	6.035354	-14.657841	1.707371	-24.251299	1.157785	-17.576847	13.716387	1.988925	26.919884	-25.687212	-53.806664	-7.794924	1.641702	5.896891	-2.112872	2.470808	-0.448952	15.261499	20.109234	-5.676965	-26.526928	-28.424469	19.970762	-5.263338	6.739623	1.540565	-0.707279	2.397998	-0.151682	5.939814	0.663602	10.281813	-3.181917	11.403490	-7.917680	-0.993536	-7.658063	-0.189147	5.907985	12.117535	-30.958645	2.627584	-9.068786	13.451677	-5.437855	-0.138432	5.579961	
-56.761799	35.756928	-3.532531	-2.436850	0.520226	9.835962	8.024644	-5.666037	-3.189745	-4.286058	9.118172	-14.735503	2.430976	-26.892111	1.735766	-10.993622	2.736218	-3.534901	19.452286	-11.230544	-53.257809	-7.661745	1.930424	5.659359	-1.118878	2.464839	-0.237758	7.131345	8.011002	1.912287	-19.041803	-12.052244	20.793777	-5.336976	6.776827	1.548115	-1.094479	2.399403	-0.234759	4.847446	-4.180617	7.700477	-2.861816	12.055714	-6.170651	-1.282694	-7.713729	-0.199894	5.211947	8.018107	-32.094040	2.653309	-9.059442	13.761779	-5.291124	0.031561	5.579827	
-56.691063	35.767159	-3.562552	-2.491654	0.608700	8.963614	7.990012	-5.616298	-3.183714	-4.185563	8.942048	-14.866930	2.874863	-28.947380	2.130045	-10.781749	2.711878	-3.778739	19.350025	-11.197314	-53.690571	-7.294272	2.008251	5.348589	-0.798020	2.463857	-0.169625	7.081074	7.658312	2.214494	-18.883242	-11.620228	21.464174	-5.070753	6.653247	1.503262	-1.141156	2.399568	-0.244758	4.758416	-4.021100	8.159851	-2.776732	11.803858	-5.818290	-1.356672	-7.778755	-0.203854	4.994197	7.874098	-31.082460	2.642918	-9.062897	13.648026	-5.246545	0.199318	5.590279	
-56.622025	35.779942	-3.580406	-2.579117	0.725123	8.160533	8.073071	-5.613463	-3.312856	-4.162237	8.719963	-14.940033	3.363125	-30.862139	2.573349	-10.790242	2.846914	-3.910510	19.460857	-11.323071	-55.633034	-6.862185	1.716023	4.972750	-19.307119	3.147503	-4.029401	7.107402	7.677929	2.390178	-18.849047	-11.603161	22.200573	-4.782082	6.563986	1.469094	-0.854137	2.398541	-0.183197	4.708784	-3.835098	8.611930	-2.706741	11.466073	-5.547902	-1.390759	-7.898146	-0.207745	4.821776	7.720834	-30.158329	2.634884	-9.065392	13.552762	-5.158487	0.285951	5.588261	
-56.548019	35.809134	-3.582594	-2.562936	0.582047	7.438010	6.473805	-4.509320	-0.840205	-1.452265	7.561943	-17.126057	2.621508	-32.599117	2.060579	-9.635239	6.453347	-4.310147	20.600653	-15.753415	-58.597805	-6.899482	1.324192	5.071959	-20.128763	3.206371	-4.194255	9.771195	7.686560	-0.621456	-19.127029	-12.791422	22.694933	-4.849098	6.599723	1.479699	-0.593224	2.397592	-0.127215	4.553412	-3.172231	9.054274	-2.625472	10.736581	-5.302134	-1.567554	-7.815145	-0.212321	4.592077	7.860894	-29.395744	2.632822	-9.066682	13.528756	-5.032317	0.381646	5.582226	
-56.483109	35.813308	-3.572661	-2.673123	0.735825	6.637027	6.619567	-4.744358	-0.908824	-1.495180	7.530067	-17.131119	3.041369	-34.105789	2.444881	-9.739227	6.483829	-4.628676	20.775166	-15.436742	-59.384930	-6.889547	1.172081	5.181412	-0.875522	2.464155	-0.186053	9.714358	7.697690	-0.371360	-19.029034	-12.551562	22.769857	-4.693278	6.560529	1.472647	-0.340639	2.397271	-0.073041	4.587454	-3.052206	9.861432	-2.612153	10.562625	-5.257633	-1.740865	-8.016341	-0.224013	4.461476	7.700278	-28.622055	2.639564	-9.063936	13.599679	-4.946287	0.461932	5.579110	
-56.420357	35.809200	-3.556584	-2.778677	0.893832	5.847903	6.739981	-5.004101	-0.933939	-1.519509	7.535593	-17.513590	3.813060	-35.285210	3.117682	-9.639462	6.440630	-4.844611	20.690727	-15.078691	-59.953365	-7.013683	1.032697	5.371717	-1.762668	2.468536	-0.374546	9.620739	7.635964	-0.135726	-18.821993	-12.246455	22.507586	-4.893538	6.650518	1.529410	-0.333102	2.397342	-0.071446	4.635068	-3.063068	10.713654	-2.631386	10.649060	-5.324229	-1.617107	-8.224789	-0.224525	4.347799	7.539603	-27.946877	2.651449	-9.062221	13.737455	-4.861543	0.550663	5.576559	
-56.368969	35.808006	-3.529007	-2.809206	0.713606	5.031807	6.697503	-4.829195	-1.007564	-1.300547	7.487455	-18.049799	4.592669	-36.041660	3.795524	-9.362075	6.086055	-5.201363	20.436785	-14.392083	-58.979259	-7.505965	1.164843	5.333049	-13.957824	2.822168	-2.938422	9.352118	7.154630	-0.186278	-18.775370	-11.845810	21.999065	-4.608965	6.540653	1.477570	0.256026	2.397416	0.054886	4.659089	-2.669049	11.573360	-2.650497	10.653110	-5.409378	-1.559934	-8.372966	-0.225679	4.212381	7.734700	-27.268633	2.663896	-9.059366	13.879520	-4.799421	0.617891	5.574858	
-56.323719	35.798764	-3.500962	-2.894805	0.630283	4.379453	6.685246	-4.751925	-1.205811	-1.142049	7.382615	-17.886986	4.586182	-36.509033	3.813782	-9.095001	5.990641	-5.551940	20.104700	-13.946141	-59.110771	-7.673965	1.123276	5.465681	-14.002316	2.824389	-2.947612	9.209288	6.890569	0.074687	-18.658476	-11.510112	21.526775	-4.542190	6.513637	1.467739	0.492496	2.397731	0.105622	4.738111	-2.578682	12.272034	-2.678996	10.963546	-5.481095	-1.276561	-8.519605	-0.215662	4.153549	7.828546	-26.789499	2.678917	-9.054554	14.053448	-4.724930	0.686436	5.571534	
-56.284565	35.787870	-3.471813	-3.023270	0.600835	3.871908	6.674859	-4.726862	-1.399305	-0.962228	7.249567	-17.848532	4.490262	-36.776192	3.746935	-9.053164	6.281142	-5.856073	20.039713	-13.901267	-59.266479	-7.902862	1.098225	5.617417	-13.313241	2.789840	-2.805123	9.328302	7.003769	0.115898	-18.862543	-11.600544	20.952812	-4.383469	6.449090	1.458138	-0.495237	2.397692	-0.106247	4.868631	-2.695062	12.661993	-2.683610	11.478362	-5.397138	-1.048226	-8.616241	-0.206067	4.174722	7.871891	-26.492586	2.695222	-9.051611	14.243159	-4.687312	0.728970	5.570363	
-56.256268	35.781861	-3.430974	-3.095097	0.403854	3.371587	6.542929	-4.482080	-1.482097	-0.725704	7.075768	-17.891953	4.427229	-36.994041	3.704692	-8.891617	6.669894	-5.996173	20.018017	-14.146008	-60.024899	-8.168507	0.948520	5.826223	-12.897635	2.769787	-2.719024	9.496941	7.143015	0.025299	-18.949638	-11.822167	20.582520	-4.523798	6.496896	1.466604	-0.602500	2.397688	-0.129203	4.949730	-2.530066	13.192408	-2.701705	11.810376	-5.419620	-0.724140	-8.649026	-0.190202	4.148572	8.106256	-26.082462	2.703354	-9.049593	14.338316	-4.642328	0.755774	5.567199	
-56.230579	35.773304	-3.380502	-3.139831	0.235012	2.933155	6.398282	-4.339331	-1.482479	-0.516047	6.948821	-17.984743	4.469635	-37.058945	3.743409	-8.739401	7.056913	-6.037537	20.054636	-14.473783	-61.140194	-8.392777	0.696746	6.063104	-13.477465	2.797740	-2.839156	9.652346	7.288357	-0.062762	-19.099159	-11.965803	20.457451	-4.547874	6.494589	1.449234	-0.683725	2.397994	-0.146646	4.991325	-2.308812	13.644336	-2.711434	12.014434	-5.423428	-0.506949	-8.768061	-0.180056	4.102830	8.333711	-25.715109	2.709611	-9.046805	14.411684	-4.590589	0.757834	5.560862	
-56.214516	35.769722	-3.324428	-3.154177	0.068509	2.490807	6.250896	-4.279531	-1.445589	-0.374206	6.930761	-18.066196	4.665398	-37.008858	3.905257	-8.605460	7.282295	-6.101111	20.031008	-14.650121	-62.234142	-8.507566	0.474732	6.248302	-14.913610	2.872553	-3.135494	9.726046	7.391394	0.012425	-19.270973	-11.938049	20.331896	-4.559892	6.476766	1.453386	-1.287120	2.400171	-0.276015	5.019975	-1.971467	14.140754	-2.731122	12.036847	-5.510220	-0.451436	-8.876896	-0.177627	4.046357	8.568020	-25.485712	2.726968	-9.042418	14.610500	-4.482569	0.737966	5.546137	
-56.209595	35.773011	-3.261515	-3.119370	-0.108841	2.060616	6.062349	-4.259230	-1.353982	-0.275598	6.992986	-18.167667	4.874668	-36.979916	4.079390	-8.358163	7.182754	-6.201666	19.841143	-14.493641	-63.182392	-8.435628	0.252445	6.269437	-15.967895	2.932369	-3.351749	9.614769	7.259292	0.214107	-19.304619	-11.562623	20.883589	-4.365270	6.401729	1.404776	-1.401267	2.400721	-0.300507	4.976357	-1.501475	14.635864	-2.739773	11.843878	-5.591749	-0.399791	-8.944922	-0.174990	3.966350	8.822969	-25.299843	2.747014	-9.038877	14.845157	-4.455319	0.740806	5.542958	
-56.204296	35.768537	-3.203939	-3.191357	-0.026560	1.889622	6.079659	-4.571840	-1.314849	-0.262847	7.091541	-18.242870	4.988999	-36.984531	4.175605	-8.133099	6.907063	-6.424224	19.562983	-14.116343	-63.968784	-8.283247	0.029359	6.193050	-16.166224	2.943968	-3.392365	9.336493	7.030843	0.430966	-19.153921	-11.006610	21.277065	-4.370697	6.393932	1.397278	-1.427887	2.401066	-0.306251	5.050484	-1.514957	14.756501	-2.733367	11.952328	-5.533722	-0.414801	-9.090336	-0.176609	4.023440	8.823246	-25.383625	2.769701	-9.031702	15.109275	-4.429640	0.657014	5.533336	
-56.205082	35.770857	-3.150888	-3.248111	-0.014725	1.732974	6.113362	-4.633221	-1.205693	-0.262247	7.005445	-18.052366	4.838448	-36.962780	4.048094	-8.072098	6.986050	-6.398196	19.497417	-14.333818	-64.348091	-8.133614	-0.095001	6.058436	-15.311789	2.894714	-3.217285	9.215835	7.126663	0.495853	-19.184084	-10.903851	21.763702	-4.252255	6.349455	1.356395	-1.230075	2.400093	-0.263807	5.103357	-1.417051	14.901270	-2.729316	11.956809	-5.511271	-0.375113	-9.173051	-0.174597	4.069023	8.888244	-25.403585	2.787305	-9.028589	15.314314	-4.430545	0.583147	5.527725	
-56.215019	35.777281	-3.101208	-3.236844	-0.032718	1.579130	5.518930	-4.340333	-0.280042	0.600572	6.541647	-18.230743	4.026860	-36.964405	3.367683	-7.533698	8.150659	-6.379999	19.793377	-15.962504	-64.930893	-7.976537	-0.253791	5.963162	-15.429044	2.901273	-3.241367	9.918631	7.079111	-0.298528	-19.246361	-11.123208	21.798393	-4.127326	6.297898	1.332229	-1.413021	2.400763	-0.303039	5.078478	-1.233170	15.002348	-2.708194	11.822617	-5.440454	-0.398947	-9.168555	-0.175941	4.081613	8.975394	-25.477974	2.803482	-9.024714	15.503751	-4.449525	0.515854	5.524920	
-56.226738	35.776191	-3.052515	-3.260644	0.149504	1.618125	5.543182	-4.543887	-0.259430	0.557225	6.460006	-17.915506	3.747209	-36.954777	3.133003	-7.547433	8.251369	-6.380555	19.816973	-16.172663	-64.515396	-7.833821	-0.320096	5.894473	-16.170221	2.944291	-3.393146	9.893942	7.252335	-0.175367	-19.256676	-11.107485	22.079762	-3.985564	6.260166	1.305296	-1.384515	2.400695	-0.296937	5.099527	-1.377041	14.884676	-2.687340	11.852240	-5.333920	-0.404369	-9.218820	-0.176648	4.157126	8.849782	-25.780699	2.825386	-9.018510	15.756859	-4.500811	0.507139	5.530221	
